<svg width="512" height="512" viewBox="0 0 512 512" fill="none" xmlns="http://www.w3.org/2000/svg">
<g clip-path="url(#clip0_2003_144)">
<rect width="512" height="512" rx="80" fill="#020617"/>
<rect x="2" y="2" width="508" height="508" rx="78" fill="#020617" stroke="#EF4444" stroke-width="4"/>
<path d="M139.239 144C155.761 144 171.304 147.261 185.869 153.782C200.652 160.087 213.587 168.891 224.674 180.195C235.978 191.5 244.783 204.435 251.087 219C256.881 231.94 260.099 245.653 260.745 260.138C260.337 260.087 259.923 260.294 259.729 260.683C259.667 260.806 259.564 260.972 259.396 261.239C259.239 261.491 259.043 261.804 258.836 262.169C258.657 262.484 258.553 262.791 258.478 263.039C258.392 263.32 258.358 263.461 258.293 263.635C258.181 263.935 257.995 264.212 257.746 264.462C257.46 264.748 257.276 265.127 257.156 265.371C257.014 265.663 256.9 265.914 256.737 266.18C256.422 266.695 255.934 267.704 255.588 268.381C255.327 268.892 255.117 269.378 254.922 269.84C254.847 270.018 254.755 270.196 254.645 270.404C254.54 270.601 254.412 270.839 254.3 271.083C254.233 271.229 254.136 271.383 253.998 271.584C253.874 271.765 253.693 272.018 253.54 272.272C253.382 272.535 253.225 272.825 253.075 273.1C252.922 273.381 252.77 273.657 252.606 273.928C252.452 274.184 252.327 274.439 252.213 274.679C252.095 274.925 251.984 275.164 251.838 275.441C251.54 276.005 251.334 276.438 251.113 276.712C250.899 276.978 250.738 277.296 250.616 277.56C250.516 277.776 250.343 278.184 250.258 278.372C250.164 278.578 250.056 278.786 249.932 279.02C249.813 279.244 249.676 279.499 249.556 279.758C249.325 280.254 249.216 280.579 248.946 281.083C248.622 281.69 248.333 282.547 248.159 282.981C247.954 283.493 247.612 284.139 247.286 284.755C247.073 285.157 246.71 285.8 246.476 286.345C246.307 286.737 246.111 287.139 245.89 287.566C245.745 287.844 245.631 288.109 245.534 288.33C245.434 288.561 245.353 288.741 245.262 288.91C245.028 289.342 244.556 290.286 244.212 291.028C244.03 291.42 243.852 291.756 243.684 292.069C243.522 292.371 243.352 292.685 243.219 292.981C243.038 293.386 242.718 293.963 242.274 294.813C242.139 295.073 241.938 295.323 241.69 295.592C241.49 295.81 241.144 296.154 240.938 296.439C240.769 296.675 240.594 296.878 240.406 297.09C240.228 297.291 240.011 297.529 239.821 297.781C239.443 298.285 239.078 299.02 238.839 299.571C238.784 299.698 238.691 299.84 238.54 300.037C238.415 300.2 238.191 300.472 238.026 300.718C237.812 301.038 237.64 301.275 237.473 301.514C237.31 301.745 237.15 301.98 237.007 302.245C236.745 302.729 236.565 303.26 236.395 303.752C236.258 304.145 236.091 304.558 235.781 305.03C235.388 305.63 235.107 306.186 234.883 306.617C234.718 306.935 234.552 307.289 234.325 307.767C234.095 308.252 233.788 308.894 233.326 309.818C232.969 310.533 232.696 311.114 232.294 311.953C231.968 312.634 231.724 313.065 231.531 313.384C231.357 313.672 231.154 313.979 231.002 314.272C230.802 314.658 230.602 314.989 230.397 315.322C230.198 315.648 229.982 315.995 229.788 316.365C229.444 317.021 229.027 317.672 228.624 318.278C228.238 318.859 227.83 319.446 227.57 319.888C227.35 320.263 227.013 320.804 226.828 321.375C226.739 321.649 226.575 321.962 226.371 322.319C226.2 322.619 225.941 323.044 225.809 323.379C225.507 324.143 225.289 324.621 224.937 325.291C224.752 325.642 224.625 325.961 224.512 326.263C224.395 326.575 224.306 326.834 224.173 327.159C223.86 327.925 223.381 328.969 223.185 329.397C222.984 329.834 222.794 330.209 222.58 330.64C222.381 331.039 222.093 331.551 221.706 332.14C221.498 332.456 221.333 332.735 221.183 332.991C221.03 333.251 220.899 333.478 220.743 333.725C220.558 334.018 220.371 334.36 220.206 334.646C220.031 334.949 219.852 335.245 219.638 335.536C219.419 335.833 219.262 336.14 219.135 336.408C218.997 336.698 218.902 336.92 218.766 337.177C218.482 337.711 218.195 338.24 217.991 338.769C217.942 338.897 217.862 339.04 217.727 339.264C217.602 339.469 217.427 339.745 217.271 340.057C217.172 340.256 217.026 340.464 216.817 340.743C216.625 341 216.37 341.33 216.158 341.688C215.86 342.194 215.577 342.67 215.343 343.157C215.126 343.608 214.899 343.803 214.415 344.463C214.019 345.003 213.647 345.546 213.04 346.325C212.62 346.865 212.338 347.299 212.123 347.649C211.89 348.028 211.792 348.208 211.67 348.37C211.477 348.627 211.325 348.889 211.204 349.095C211.076 349.314 210.977 349.482 210.857 349.642C210.673 349.889 210.44 350.263 210.234 350.584C210.011 350.934 209.791 351.267 209.587 351.524C209.388 351.776 209.211 352.07 209.078 352.283C208.931 352.518 208.794 352.724 208.625 352.921C208.288 353.312 208.047 353.689 207.855 354.011C207.646 354.361 207.539 354.565 207.4 354.763C207.223 355.015 207.035 355.251 206.839 355.501C206.655 355.735 206.447 356.003 206.288 356.264C206.19 356.425 206.067 356.595 205.891 356.846C205.723 357.084 205.526 357.369 205.328 357.705C205.076 358.134 204.873 358.512 204.698 358.839C204.52 359.173 204.381 359.437 204.238 359.675C203.937 360.178 203.599 360.686 203.311 361.092C203.015 361.508 202.701 362.092 202.447 362.502C202.142 362.995 201.931 363.64 201.81 363.931C201.73 364.12 201.627 364.32 201.502 364.565C201.387 364.791 201.245 365.068 201.143 365.342C200.967 365.81 200.823 366.434 200.646 367.025C200.557 367.32 200.553 367.627 200.562 367.84C200.573 368.069 200.605 368.292 200.644 368.466C200.697 368.702 200.811 368.995 201.074 369.225C201.124 369.268 201.175 369.304 201.225 369.335C201.236 369.388 201.25 369.442 201.271 369.495C201.286 369.535 201.305 369.574 201.324 369.61C196.418 372.551 191.268 375.176 185.869 377.479C171.304 383.565 155.761 386.608 139.239 386.608C122.283 386.608 106.521 383.565 91.9561 377.479C77.3911 371.174 64.5653 362.587 53.4785 351.718C42.3916 340.631 33.6959 327.804 27.3916 313.239C21.0873 298.457 17.9346 282.587 17.9346 265.631C17.9346 249.109 21.0873 233.565 27.3916 219C33.6959 204.435 42.3916 191.5 53.4785 180.195C64.5653 168.891 77.3911 160.087 91.9561 153.782C106.739 147.26 122.5 144 139.239 144ZM139.239 180.521C127.718 180.521 116.956 182.696 106.956 187.044C96.9563 191.392 88.1525 197.479 80.5439 205.305C73.1527 213.131 67.3912 222.261 63.2607 232.695C59.1303 242.913 57.0654 253.892 57.0654 265.631C57.0655 277.37 59.1304 288.348 63.2607 298.565C67.6086 308.783 73.5867 317.805 81.1953 325.631C88.804 333.239 97.6085 339.218 107.608 343.565C117.608 347.913 128.479 350.087 140.218 350.087C151.522 350.087 162.065 347.913 171.848 343.565C181.848 339.218 190.543 333.239 197.935 325.631C205.326 317.805 211.087 308.783 215.218 298.565C219.566 288.348 221.739 277.37 221.739 265.631C221.739 253.674 219.566 242.587 215.218 232.369C210.87 222.152 205 213.131 197.608 205.305C190.217 197.479 181.521 191.392 171.521 187.044C161.522 182.696 150.761 180.521 139.239 180.521Z" fill="#FD3434"/>
<path d="M484.004 360H452.329V245.401L382.699 343.89H382.153L314.161 249.863V360H283.306V248.675L283.434 248.749L283.721 248.249L313.501 196.478L382.773 294.555L483.458 154.113H484.004V360Z" fill="#E2E8F0"/>
<path d="M346.069 82.0215C343.177 88.6936 340.26 95.3534 337.317 101.999C310.837 161.809 282.327 220.544 251.79 278.206C235.394 309.166 218.411 339.814 200.846 370.154C200.796 370.179 200.757 370.208 200.727 370.232C200.669 370.279 200.625 370.329 200.598 370.362C200.571 370.395 200.544 370.43 200.532 370.445C200.527 370.452 200.524 370.457 200.521 370.46C200.465 370.518 200.397 370.583 200.352 370.624C200.294 370.675 200.248 370.71 200.18 370.764C200.052 370.689 199.894 370.669 199.745 370.727C199.631 370.771 199.539 370.824 199.453 370.885C199.366 370.947 199.282 371.014 199.211 371.069C199.172 371.099 199.093 371.159 199.019 371.226C198.968 371.271 198.889 371.336 198.805 371.407C198.786 371.423 198.766 371.437 198.723 371.47C198.688 371.496 198.631 371.539 198.578 371.59C198.564 371.603 198.543 371.62 198.497 371.659C198.464 371.687 198.403 371.74 198.353 371.797C198.337 371.814 198.316 371.832 198.283 371.863C198.237 371.883 198.211 371.895 198.188 371.903C198.135 371.921 198.022 371.96 197.929 372.005C197.848 372.044 197.735 372.103 197.679 372.132C197.66 372.142 197.64 372.153 197.624 372.161C197.607 372.17 197.592 372.177 197.579 372.184C197.566 372.19 197.556 372.195 197.548 372.198C197.54 372.202 197.536 372.203 197.536 372.203C197.392 372.255 197.199 372.37 197.187 372.377C197.061 372.443 196.971 372.493 196.797 372.612C196.804 372.608 196.81 372.604 196.783 372.618C196.755 372.632 196.712 372.654 196.654 372.689C196.501 372.782 196.407 372.833 196.345 372.865C196.303 372.887 196.214 372.928 196.145 372.976C196.134 372.983 196.115 372.994 196.071 373.017C196.034 373.036 195.97 373.068 195.907 373.103C195.807 373.158 195.665 373.243 195.562 373.308C195.481 373.357 195.43 373.387 195.396 373.407C195.362 373.426 195.351 373.431 195.351 373.432C195.243 373.477 195.114 373.549 195.081 373.567C195.005 373.609 194.95 373.643 194.847 373.686C194.733 373.732 194.575 373.803 194.477 373.856C194.398 373.898 194.365 373.909 194.27 373.947C194.192 373.978 194.118 374.01 194.054 374.037C193.987 374.066 193.933 374.089 193.888 374.106C193.802 374.14 193.677 374.208 193.65 374.221C193.649 374.221 193.647 374.222 193.646 374.223C193.641 374.225 193.635 374.227 193.628 374.229C193.621 374.232 193.612 374.236 193.603 374.24C193.563 374.257 193.506 374.281 193.441 374.317C193.316 374.388 193.213 374.439 193.166 374.459C193.005 374.528 192.77 374.655 192.714 374.685C192.695 374.695 192.679 374.702 192.629 374.727C192.588 374.747 192.534 374.775 192.479 374.809C192.47 374.814 192.46 374.819 192.418 374.838C192.379 374.855 192.315 374.884 192.243 374.929C192.239 374.931 192.229 374.937 192.206 374.947C192.194 374.952 192.182 374.958 192.165 374.965C192.149 374.972 192.129 374.981 192.107 374.99C192.05 375.016 192.001 375.044 191.977 375.059C191.962 375.067 191.955 375.072 191.948 375.075C191.945 375.077 191.943 375.078 191.942 375.078C191.877 375.107 191.742 375.177 191.623 375.235C191.543 375.275 191.504 375.296 191.453 375.315C191.331 375.363 191.218 375.418 191.184 375.433C191.017 375.505 190.728 375.623 190.625 375.674C190.58 375.696 190.522 375.723 190.455 375.754C190.392 375.783 190.318 375.816 190.255 375.848C190.214 375.868 190.18 375.88 190.103 375.913C190.089 375.919 190.075 375.925 190.067 375.929C190.058 375.933 190.051 375.937 190.04 375.941C190.019 375.951 189.984 375.965 189.923 375.99C189.796 376.042 189.573 376.145 189.458 376.197C189.359 376.242 189.288 376.278 189.234 376.306C189.168 376.34 189.162 376.344 189.144 376.354C189.09 376.379 189.015 376.412 188.926 376.453C188.862 376.482 188.793 376.515 188.672 376.574C188.671 376.575 188.67 376.575 188.669 376.575C188.595 376.553 188.515 376.546 188.435 376.562C188.338 376.58 188.231 376.605 188.117 376.654C188.079 376.671 188.044 376.685 188.004 376.701C187.964 376.717 187.919 376.737 187.866 376.76C187.799 376.789 187.734 376.823 187.675 376.856C187.631 376.858 187.587 376.863 187.544 376.876C187.537 376.878 187.529 376.88 187.521 376.883C187.512 376.886 187.501 376.888 187.492 376.892C187.501 376.888 187.512 376.884 187.521 376.881C187.524 376.88 187.527 376.879 187.529 376.878L187.532 376.877L187.534 376.876C187.537 376.875 187.541 376.875 187.544 376.874C187.555 376.871 187.565 376.868 187.572 376.866L187.544 376.872C187.539 376.874 187.533 376.876 187.528 376.877L187.521 376.879C187.441 376.901 187.373 376.935 187.311 376.978C187.302 376.983 187.305 376.981 187.277 376.998C187.25 377.015 187.218 377.037 187.18 377.068C187.182 377.067 187.184 377.065 187.186 377.063C187.18 377.067 187.174 377.071 187.163 377.078C187.153 377.085 187.14 377.094 187.126 377.104L187.123 377.105C187.089 377.116 187.043 377.13 186.98 377.152C186.974 377.155 186.969 377.156 186.962 377.158C186.959 377.159 186.948 377.162 186.939 377.165C186.928 377.169 186.91 377.174 186.889 377.183V377.184C186.887 377.184 186.884 377.185 186.881 377.186C186.878 377.187 186.873 377.188 186.869 377.189C186.86 377.192 186.847 377.196 186.833 377.201C186.818 377.207 186.804 377.212 186.794 377.216C186.784 377.22 186.774 377.225 186.768 377.228C186.753 377.234 186.741 377.239 186.729 377.243C186.633 377.28 186.596 377.297 186.545 377.323C186.466 377.364 186.402 377.401 186.374 377.418C186.348 377.434 186.318 377.453 186.298 377.466L186.272 377.481C186.26 377.488 186.249 377.496 186.242 377.5C186.237 377.503 186.223 377.511 186.22 377.513C186.206 377.521 186.196 377.527 186.19 377.53C186.177 377.537 186.173 377.54 186.164 377.544C186.156 377.548 186.148 377.552 186.14 377.555C186.126 377.559 186.114 377.564 186.104 377.567C186.095 377.571 186.089 377.573 186.085 377.574C186.087 377.574 186.09 377.573 186.093 377.572C186.048 377.583 185.983 377.598 185.872 377.634C185.799 377.657 185.756 377.674 185.707 377.693C185.664 377.71 185.63 377.727 185.55 377.768C185.548 377.768 185.545 377.77 185.54 377.771C185.531 377.775 185.522 377.778 185.506 377.783C185.491 377.789 185.473 377.795 185.452 377.803C185.392 377.825 185.342 377.846 185.274 377.867C185.201 377.891 185.125 377.911 185.096 377.918C185.056 377.927 185.027 377.934 185.005 377.94C185 377.942 184.995 377.943 184.991 377.944C184.988 377.945 184.985 377.946 184.983 377.946C184.981 377.947 184.982 377.947 184.984 377.946C184.949 377.955 184.919 377.964 184.901 377.97C184.897 377.971 184.892 377.973 184.89 377.974L184.883 377.977C184.862 377.983 184.841 377.989 184.83 377.992C184.824 377.994 184.819 377.996 184.815 377.997C184.813 377.998 184.811 377.998 184.811 377.998C184.785 378.005 184.772 378.008 184.735 378.018C184.684 378.031 184.585 378.057 184.472 378.119C184.478 378.116 184.484 378.113 184.487 378.111C184.481 378.114 184.473 378.117 184.458 378.123C184.433 378.134 184.388 378.153 184.344 378.176L184.327 378.184C184.304 378.194 184.274 378.208 184.236 378.229C184.235 378.229 184.234 378.23 184.231 378.231C184.225 378.235 184.217 378.237 184.205 378.243C184.183 378.254 184.15 378.27 184.114 378.289C184.1 378.297 184.034 378.33 183.994 378.353C183.992 378.354 183.988 378.356 183.983 378.357C183.967 378.364 183.943 378.373 183.916 378.383C183.898 378.389 183.879 378.397 183.873 378.399C183.866 378.402 183.863 378.402 183.863 378.402L183.864 378.401C183.862 378.402 183.859 378.404 183.854 378.404C183.807 378.411 183.753 378.416 183.638 378.449C183.585 378.464 183.461 378.5 183.388 378.525L183.229 378.589L183.068 378.68C183.042 378.699 183.02 378.716 183.004 378.729C183 378.731 182.996 378.734 182.993 378.736C182.99 378.739 182.987 378.742 182.985 378.743L182.984 378.744L182.982 378.745C182.979 378.748 182.968 378.755 182.958 378.762C182.947 378.77 182.933 378.781 182.916 378.794C182.914 378.795 182.911 378.796 182.908 378.797C182.912 378.796 182.912 378.795 182.905 378.797C182.898 378.798 182.889 378.801 182.875 378.804C182.849 378.809 182.807 378.816 182.763 378.826C182.757 378.827 182.752 378.829 182.748 378.83C182.744 378.831 182.74 378.831 182.737 378.832C182.733 378.833 182.73 378.834 182.729 378.834C182.727 378.834 182.726 378.834 182.725 378.834C182.663 378.837 182.607 378.847 182.561 378.858L182.454 378.891C182.403 378.908 182.363 378.928 182.335 378.942L182.323 378.946C182.319 378.947 182.296 378.953 182.271 378.961C182.263 378.964 182.248 378.968 182.231 378.976C182.224 378.979 182.206 378.99 182.183 379.003C199.594 342.337 217.788 306.086 236.767 270.25C267.304 212.588 299.869 156 334.462 100.486C338.306 94.3181 342.176 88.1632 346.069 82.0215ZM182.464 378.938C182.47 378.939 182.483 378.94 182.498 378.942C182.475 378.941 182.452 378.938 182.434 378.938C182.436 378.938 182.448 378.937 182.464 378.938ZM183.015 378.769C183.014 378.769 183.013 378.769 183.012 378.77H183.01C183.011 378.769 183.013 378.769 183.014 378.769H183.015ZM187.484 376.891H187.486C187.487 376.89 187.488 376.89 187.489 376.89L187.484 376.891Z" fill="#FD3434"/>
<path d="M313.5 196.5L321 207L321.261 207.391C306.33 238.292 290.841 268.898 274.79 299.206C244.253 356.868 211.688 413.456 177.095 468.97C173.251 475.138 169.382 481.293 165.488 487.435C168.381 480.762 171.298 474.103 174.24 467.457C200.721 407.647 229.23 348.912 259.767 291.25C276.816 259.057 294.498 227.198 312.812 195.674L313.5 196.5Z" fill="#E2E8F0"/>
</g>
<rect x="2" y="2" width="508" height="508" rx="78" stroke="#EF4444" stroke-width="4"/>
<defs>
<clipPath id="clip0_2003_144">
<rect width="512" height="512" rx="80" fill="white"/>
</clipPath>
</defs>
</svg>
